<mxfile host="Electron" agent="Mozilla/5.0 (Windows NT 10.0; Win64; x64) AppleWebKit/537.36 (KHTML, like Gecko) draw.io/26.0.9 Chrome/128.0.6613.186 Electron/32.2.5 Safari/537.36" version="26.0.9">
  <diagram name="Page-1" id="ZLrxW_peQqWu8o78CICE">
    <mxGraphModel dx="2899" dy="1194" grid="1" gridSize="10" guides="1" tooltips="1" connect="1" arrows="1" fold="1" page="1" pageScale="1" pageWidth="850" pageHeight="1100" math="0" shadow="0">
      <root>
        <mxCell id="0" />
        <mxCell id="1" parent="0" />
        <mxCell id="vRsOyoy0LnfYh0iRuvk4-1" value="ZMM_CV_CDS_TRAIN_FLBOOK" style="rounded=1;whiteSpace=wrap;html=1;" vertex="1" parent="1">
          <mxGeometry x="400" y="150" width="260" height="80" as="geometry" />
        </mxCell>
        <mxCell id="vRsOyoy0LnfYh0iRuvk4-26" style="edgeStyle=orthogonalEdgeStyle;rounded=0;orthogonalLoop=1;jettySize=auto;html=1;exitX=0.5;exitY=0;exitDx=0;exitDy=0;" edge="1" parent="1" source="vRsOyoy0LnfYh0iRuvk4-2" target="vRsOyoy0LnfYh0iRuvk4-1">
          <mxGeometry relative="1" as="geometry" />
        </mxCell>
        <mxCell id="vRsOyoy0LnfYh0iRuvk4-2" value="ZMM_RV_CDS_TRAIN_FLBOOK" style="rounded=1;whiteSpace=wrap;html=1;" vertex="1" parent="1">
          <mxGeometry x="400" y="320" width="260" height="80" as="geometry" />
        </mxCell>
        <mxCell id="vRsOyoy0LnfYh0iRuvk4-16" style="edgeStyle=orthogonalEdgeStyle;rounded=0;orthogonalLoop=1;jettySize=auto;html=1;exitX=1;exitY=0.5;exitDx=0;exitDy=0;dashed=1;" edge="1" parent="1" source="vRsOyoy0LnfYh0iRuvk4-3" target="vRsOyoy0LnfYh0iRuvk4-2">
          <mxGeometry relative="1" as="geometry" />
        </mxCell>
        <mxCell id="vRsOyoy0LnfYh0iRuvk4-3" value="I_CalendarDate" style="rounded=1;whiteSpace=wrap;html=1;" vertex="1" parent="1">
          <mxGeometry x="80" y="320" width="260" height="80" as="geometry" />
        </mxCell>
        <mxCell id="vRsOyoy0LnfYh0iRuvk4-4" value="ZMM_IV_CDS_TRAIN_CUST" style="rounded=1;whiteSpace=wrap;html=1;" vertex="1" parent="1">
          <mxGeometry x="80" y="820" width="260" height="80" as="geometry" />
        </mxCell>
        <mxCell id="vRsOyoy0LnfYh0iRuvk4-5" value="ZMM_IV_CDS_TRAIN_CON" style="rounded=1;whiteSpace=wrap;html=1;" vertex="1" parent="1">
          <mxGeometry x="80" y="620" width="260" height="80" as="geometry" />
        </mxCell>
        <mxCell id="vRsOyoy0LnfYh0iRuvk4-6" value="ZMM_IV_CDS_TRAIN_TRVAGCY" style="rounded=1;whiteSpace=wrap;html=1;" vertex="1" parent="1">
          <mxGeometry x="80" y="720" width="260" height="80" as="geometry" />
        </mxCell>
        <mxCell id="vRsOyoy0LnfYh0iRuvk4-17" style="edgeStyle=orthogonalEdgeStyle;rounded=0;orthogonalLoop=1;jettySize=auto;html=1;exitX=0.5;exitY=0;exitDx=0;exitDy=0;dashed=1;entryX=0.207;entryY=1.011;entryDx=0;entryDy=0;entryPerimeter=0;" edge="1" parent="1" source="vRsOyoy0LnfYh0iRuvk4-7" target="vRsOyoy0LnfYh0iRuvk4-2">
          <mxGeometry relative="1" as="geometry">
            <mxPoint x="450" y="410" as="targetPoint" />
          </mxGeometry>
        </mxCell>
        <mxCell id="vRsOyoy0LnfYh0iRuvk4-7" value="ZMM_IV_CDS_TRAIN_AIRLINE" style="rounded=1;whiteSpace=wrap;html=1;" vertex="1" parent="1">
          <mxGeometry x="80" y="520" width="260" height="80" as="geometry" />
        </mxCell>
        <mxCell id="vRsOyoy0LnfYh0iRuvk4-13" style="edgeStyle=orthogonalEdgeStyle;rounded=0;orthogonalLoop=1;jettySize=auto;html=1;exitX=0.5;exitY=0;exitDx=0;exitDy=0;entryX=0.609;entryY=1.006;entryDx=0;entryDy=0;entryPerimeter=0;" edge="1" parent="1" source="vRsOyoy0LnfYh0iRuvk4-8" target="vRsOyoy0LnfYh0iRuvk4-2">
          <mxGeometry relative="1" as="geometry" />
        </mxCell>
        <mxCell id="vRsOyoy0LnfYh0iRuvk4-8" value="ZMM_IV_CDS_TRAIN_AIRLINE" style="rounded=1;whiteSpace=wrap;html=1;" vertex="1" parent="1">
          <mxGeometry x="530" y="530" width="260" height="80" as="geometry" />
        </mxCell>
        <mxCell id="vRsOyoy0LnfYh0iRuvk4-9" value="" style="endArrow=none;dashed=1;html=1;rounded=0;" edge="1" parent="1">
          <mxGeometry width="50" height="50" relative="1" as="geometry">
            <mxPoint x="-120" y="270" as="sourcePoint" />
            <mxPoint x="1350" y="270" as="targetPoint" />
          </mxGeometry>
        </mxCell>
        <mxCell id="vRsOyoy0LnfYh0iRuvk4-11" value="ZMM_IV_CDS_TRAIN_AVG_FLGT" style="rounded=1;whiteSpace=wrap;html=1;" vertex="1" parent="1">
          <mxGeometry x="820" y="530" width="260" height="80" as="geometry" />
        </mxCell>
        <mxCell id="vRsOyoy0LnfYh0iRuvk4-25" style="edgeStyle=orthogonalEdgeStyle;rounded=0;orthogonalLoop=1;jettySize=auto;html=1;exitX=0.5;exitY=0;exitDx=0;exitDy=0;" edge="1" parent="1" source="vRsOyoy0LnfYh0iRuvk4-12">
          <mxGeometry relative="1" as="geometry">
            <mxPoint x="560" y="400" as="targetPoint" />
          </mxGeometry>
        </mxCell>
        <mxCell id="vRsOyoy0LnfYh0iRuvk4-12" value="ZMM_TF_CDS_TRAIN_NAMES" style="rounded=1;whiteSpace=wrap;html=1;" vertex="1" parent="1">
          <mxGeometry x="1110" y="530" width="260" height="80" as="geometry" />
        </mxCell>
        <mxCell id="vRsOyoy0LnfYh0iRuvk4-20" style="edgeStyle=orthogonalEdgeStyle;rounded=0;orthogonalLoop=1;jettySize=auto;html=1;exitX=1;exitY=0.5;exitDx=0;exitDy=0;entryX=0.203;entryY=1.032;entryDx=0;entryDy=0;entryPerimeter=0;dashed=1;" edge="1" parent="1" source="vRsOyoy0LnfYh0iRuvk4-5" target="vRsOyoy0LnfYh0iRuvk4-2">
          <mxGeometry relative="1" as="geometry" />
        </mxCell>
        <mxCell id="vRsOyoy0LnfYh0iRuvk4-21" style="edgeStyle=orthogonalEdgeStyle;rounded=0;orthogonalLoop=1;jettySize=auto;html=1;exitX=1;exitY=0.5;exitDx=0;exitDy=0;dashed=1;entryX=0.207;entryY=1.032;entryDx=0;entryDy=0;entryPerimeter=0;" edge="1" parent="1" source="vRsOyoy0LnfYh0iRuvk4-6" target="vRsOyoy0LnfYh0iRuvk4-2">
          <mxGeometry relative="1" as="geometry">
            <mxPoint x="497" y="400" as="targetPoint" />
          </mxGeometry>
        </mxCell>
        <mxCell id="vRsOyoy0LnfYh0iRuvk4-22" style="edgeStyle=orthogonalEdgeStyle;rounded=0;orthogonalLoop=1;jettySize=auto;html=1;exitX=1;exitY=0.5;exitDx=0;exitDy=0;dashed=1;entryX=0.207;entryY=1.004;entryDx=0;entryDy=0;entryPerimeter=0;" edge="1" parent="1" source="vRsOyoy0LnfYh0iRuvk4-4" target="vRsOyoy0LnfYh0iRuvk4-2">
          <mxGeometry relative="1" as="geometry">
            <mxPoint x="512" y="400" as="targetPoint" />
          </mxGeometry>
        </mxCell>
        <mxCell id="vRsOyoy0LnfYh0iRuvk4-24" style="edgeStyle=orthogonalEdgeStyle;rounded=0;orthogonalLoop=1;jettySize=auto;html=1;entryX=0.612;entryY=1.006;entryDx=0;entryDy=0;entryPerimeter=0;exitX=0.5;exitY=0;exitDx=0;exitDy=0;" edge="1" parent="1" source="vRsOyoy0LnfYh0iRuvk4-11" target="vRsOyoy0LnfYh0iRuvk4-2">
          <mxGeometry relative="1" as="geometry" />
        </mxCell>
        <mxCell id="vRsOyoy0LnfYh0iRuvk4-27" value="" style="endArrow=none;dashed=1;html=1;rounded=0;" edge="1" parent="1">
          <mxGeometry width="50" height="50" relative="1" as="geometry">
            <mxPoint x="-120" y="430" as="sourcePoint" />
            <mxPoint x="1350" y="430" as="targetPoint" />
          </mxGeometry>
        </mxCell>
        <mxCell id="vRsOyoy0LnfYh0iRuvk4-28" value="Consumption Layer" style="text;html=1;align=center;verticalAlign=middle;whiteSpace=wrap;rounded=0;" vertex="1" parent="1">
          <mxGeometry x="-120" y="175" width="170" height="30" as="geometry" />
        </mxCell>
        <mxCell id="vRsOyoy0LnfYh0iRuvk4-29" value="Composite Interface View Layer" style="text;html=1;align=center;verticalAlign=middle;whiteSpace=wrap;rounded=0;" vertex="1" parent="1">
          <mxGeometry x="-120" y="340" width="170" height="30" as="geometry" />
        </mxCell>
        <mxCell id="vRsOyoy0LnfYh0iRuvk4-30" value="Basic Interface View layer" style="text;html=1;align=center;verticalAlign=middle;whiteSpace=wrap;rounded=0;" vertex="1" parent="1">
          <mxGeometry x="-130" y="640" width="170" height="30" as="geometry" />
        </mxCell>
        <mxCell id="vRsOyoy0LnfYh0iRuvk4-32" style="edgeStyle=orthogonalEdgeStyle;rounded=0;orthogonalLoop=1;jettySize=auto;html=1;exitX=0.5;exitY=0;exitDx=0;exitDy=0;entryX=0.5;entryY=1;entryDx=0;entryDy=0;" edge="1" parent="1" source="vRsOyoy0LnfYh0iRuvk4-31" target="vRsOyoy0LnfYh0iRuvk4-12">
          <mxGeometry relative="1" as="geometry" />
        </mxCell>
        <mxCell id="vRsOyoy0LnfYh0iRuvk4-31" value="AMDP Method" style="ellipse;whiteSpace=wrap;html=1;" vertex="1" parent="1">
          <mxGeometry x="1180" y="700" width="120" height="80" as="geometry" />
        </mxCell>
        <mxCell id="vRsOyoy0LnfYh0iRuvk4-33" value="" style="endArrow=none;dashed=1;html=1;rounded=0;" edge="1" parent="1">
          <mxGeometry width="50" height="50" relative="1" as="geometry">
            <mxPoint x="-120" y="940" as="sourcePoint" />
            <mxPoint x="1350" y="940" as="targetPoint" />
          </mxGeometry>
        </mxCell>
        <mxCell id="vRsOyoy0LnfYh0iRuvk4-34" value="Persistence layer" style="text;html=1;align=center;verticalAlign=middle;whiteSpace=wrap;rounded=0;" vertex="1" parent="1">
          <mxGeometry x="-120" y="980" width="170" height="30" as="geometry" />
        </mxCell>
        <mxCell id="vRsOyoy0LnfYh0iRuvk4-35" value="SBOOK" style="shape=cylinder3;whiteSpace=wrap;html=1;boundedLbl=1;backgroundOutline=1;size=15;" vertex="1" parent="1">
          <mxGeometry x="1020" y="1000" width="100" height="70" as="geometry" />
        </mxCell>
        <mxCell id="vRsOyoy0LnfYh0iRuvk4-36" value="SCARR" style="shape=cylinder3;whiteSpace=wrap;html=1;boundedLbl=1;backgroundOutline=1;size=15;" vertex="1" parent="1">
          <mxGeometry x="890" y="1000" width="100" height="70" as="geometry" />
        </mxCell>
        <mxCell id="vRsOyoy0LnfYh0iRuvk4-37" value="SFLIGHT" style="shape=cylinder3;whiteSpace=wrap;html=1;boundedLbl=1;backgroundOutline=1;size=15;" vertex="1" parent="1">
          <mxGeometry x="760" y="1000" width="100" height="70" as="geometry" />
        </mxCell>
        <mxCell id="vRsOyoy0LnfYh0iRuvk4-38" value="SPFLI" style="shape=cylinder3;whiteSpace=wrap;html=1;boundedLbl=1;backgroundOutline=1;size=15;" vertex="1" parent="1">
          <mxGeometry x="640" y="1000" width="100" height="70" as="geometry" />
        </mxCell>
        <mxCell id="vRsOyoy0LnfYh0iRuvk4-39" value="SCUSTOM" style="shape=cylinder3;whiteSpace=wrap;html=1;boundedLbl=1;backgroundOutline=1;size=15;" vertex="1" parent="1">
          <mxGeometry x="520" y="1000" width="100" height="70" as="geometry" />
        </mxCell>
        <mxCell id="vRsOyoy0LnfYh0iRuvk4-40" value="STRAVELAG" style="shape=cylinder3;whiteSpace=wrap;html=1;boundedLbl=1;backgroundOutline=1;size=15;" vertex="1" parent="1">
          <mxGeometry x="280" y="1000" width="100" height="70" as="geometry" />
        </mxCell>
        <mxCell id="vRsOyoy0LnfYh0iRuvk4-41" value="FLGTBOOK" style="shape=cylinder3;whiteSpace=wrap;html=1;boundedLbl=1;backgroundOutline=1;size=15;" vertex="1" parent="1">
          <mxGeometry x="400" y="1000" width="100" height="70" as="geometry" />
        </mxCell>
        <mxCell id="vRsOyoy0LnfYh0iRuvk4-42" value="SCAL_TT_DATE" style="shape=cylinder3;whiteSpace=wrap;html=1;boundedLbl=1;backgroundOutline=1;size=15;" vertex="1" parent="1">
          <mxGeometry x="1150" y="1000" width="100" height="70" as="geometry" />
        </mxCell>
        <mxCell id="vRsOyoy0LnfYh0iRuvk4-43" value="" style="endArrow=classic;html=1;rounded=0;" edge="1" parent="1">
          <mxGeometry width="50" height="50" relative="1" as="geometry">
            <mxPoint x="760" y="990" as="sourcePoint" />
            <mxPoint x="760" y="890" as="targetPoint" />
          </mxGeometry>
        </mxCell>
        <mxCell id="vRsOyoy0LnfYh0iRuvk4-44" value="association" style="text;html=1;align=center;verticalAlign=middle;whiteSpace=wrap;rounded=0;" vertex="1" parent="1">
          <mxGeometry x="330" y="460" width="120" height="30" as="geometry" />
        </mxCell>
        <mxCell id="vRsOyoy0LnfYh0iRuvk4-45" value="join" style="text;html=1;align=center;verticalAlign=middle;whiteSpace=wrap;rounded=0;" vertex="1" parent="1">
          <mxGeometry x="560" y="440" width="120" height="30" as="geometry" />
        </mxCell>
        <mxCell id="vRsOyoy0LnfYh0iRuvk4-49" style="edgeStyle=orthogonalEdgeStyle;rounded=0;orthogonalLoop=1;jettySize=auto;html=1;entryX=1;entryY=0.5;entryDx=0;entryDy=0;dashed=1;" edge="1" parent="1" source="vRsOyoy0LnfYh0iRuvk4-48" target="vRsOyoy0LnfYh0iRuvk4-2">
          <mxGeometry relative="1" as="geometry" />
        </mxCell>
        <mxCell id="vRsOyoy0LnfYh0iRuvk4-48" value="ZMM_RV_CDS_TRAIN_FLBOOK" style="rounded=1;whiteSpace=wrap;html=1;" vertex="1" parent="1">
          <mxGeometry x="760" y="320" width="260" height="80" as="geometry" />
        </mxCell>
        <mxCell id="vRsOyoy0LnfYh0iRuvk4-47" value="DAC" style="shape=parallelogram;perimeter=parallelogramPerimeter;whiteSpace=wrap;html=1;fixedSize=1;" vertex="1" parent="1">
          <mxGeometry x="750" y="310" width="120" height="30" as="geometry" />
        </mxCell>
      </root>
    </mxGraphModel>
  </diagram>
</mxfile>
